<svg width="269" height="165" viewBox="0 0 269 165" fill="none" xmlns="http://www.w3.org/2000/svg">
<path fill-rule="evenodd" clip-rule="evenodd" d="M125.472 22.5341L112.462 0H185.994C189.073 0 190.998 3.33839 189.458 6.0091L152.724 69.7353L139.724 47.219L150.489 28.5433C152.029 25.8725 150.104 22.5341 147.025 22.5341H125.472ZM5.00574 0H66.6576L79.6472 22.5341H43.9746C40.8955 22.5341 38.9711 25.8725 40.5107 28.5432L92.0361 117.929C93.5756 120.599 97.4244 120.599 98.9639 117.929L116.8 86.9866L129.79 109.521L98.9639 162.997C97.4244 165.668 93.5756 165.668 92.0361 162.997L1.54183 6.0091C0.00232339 3.33839 1.92672 0 5.00574 0Z" fill="#7E8795"/>
<path fill-rule="evenodd" clip-rule="evenodd" d="M264.005 0C267.084 0 269.009 3.33333 267.469 6L176.97 162.75C175.43 165.417 171.581 165.417 170.042 162.75L79.5419 6C78.0023 3.33333 79.9268 0 83.006 0H264.005ZM225.034 22.5C228.113 22.5 230.038 25.8333 228.498 28.5L176.97 117.75C175.43 120.417 171.581 120.417 170.042 117.75L118.513 28.5C116.973 25.8333 118.898 22.5 121.977 22.5H225.034Z" fill="#D9CAB3"/>
<path fill-rule="evenodd" clip-rule="evenodd" d="M116.744 87.0239L99.004 117.75C97.4644 120.417 93.6154 120.417 92.0758 117.75L40.5473 28.5C39.0077 25.8333 40.9322 22.5 44.0114 22.5H44.006C40.928 22.5 39.0033 25.831 40.5405 28.4977L93.5703 120.491C95.109 123.16 98.9608 123.161 100.5 120.492L118.277 89.6795L116.744 87.0239ZM152.76 23.5C154.096 24.6907 154.588 26.7396 153.573 28.4989L141.249 49.8609L139.724 47.2201L150.533 28.5C151.548 26.7406 151.056 24.691 149.719 23.5H152.76Z" fill="#4F6079"/>
<path fill-rule="evenodd" clip-rule="evenodd" d="M178.466 120.492C176.927 123.161 173.075 123.16 171.536 120.491L118.506 28.4977C116.969 25.831 118.894 22.5 121.972 22.5H121.977C118.898 22.5 116.974 25.8333 118.513 28.5L170.042 117.75C171.581 120.417 175.43 120.417 176.97 117.75L228.498 28.5C230.038 25.8333 228.113 22.5 225.034 22.5H228.074C231.153 22.5 233.078 25.8322 231.539 28.4989L178.466 120.492Z" fill="#F28123"/>
<path fill-rule="evenodd" clip-rule="evenodd" d="M178 160.965L176.97 162.75C175.43 165.417 171.581 165.417 170.041 162.75L79.5417 6C78.0021 3.33333 79.9266 0 83.0058 0H84.9999C84.1665 0.666672 82.9998 2.8 84.9999 6L173.505 159.5C174.17 160.644 176 162.538 178 160.965Z" fill="#F28123"/>
<path fill-rule="evenodd" clip-rule="evenodd" d="M99.9978 161.204L98.9647 162.994C97.4254 165.663 93.5746 165.663 92.0353 162.994L1.4609 5.99889C-0.0775634 3.33221 1.84701 -1.52588e-05 4.92564 -1.52588e-05H6.92885C6.09486 0.667648 4.92727 2.80414 6.92885 6.00888L95.5 159.736C96.1653 160.882 97.9964 162.778 99.9978 161.204Z" fill="#4F6079"/>
</svg>
