<svg width="168" height="168" viewBox="0 0 168 168" fill="none" xmlns="http://www.w3.org/2000/svg">
<g id="cloudy icon">
<g id="clouds">
<g id="big cloud">
<path id="Vector" d="M34.5 130C20.969 130 10 119.031 10 105.5C10 92.1039 20.7514 81.219 34.0961 81.0033C35.6399 56.9949 55.6017 38 80 38C105.405 38 126 58.5949 126 84C126 109.405 105.405 130 80 130H34.5Z" fill="#9DA5CC"/>
<path id="Vector_2" d="M34.5 130C20.969 130 10 119.031 10 105.5C10 102.699 10.4702 100.007 11.3359 97.5C11.3359 127.5 36 130 70.5 130H34.5Z" fill="#8C93BA"/>
<path id="Vector_3" d="M125.999 84C125.999 109.405 105.404 130 79.9993 130H53C39.6665 110 55.8122 81.3825 82 83.8863C82.9762 80.9374 84.9617 76.9487 88.0671 72.9861C93.873 65.5778 103.593 58.2606 117.952 58C123.029 65.3963 125.999 74.3512 125.999 84Z" fill="#8C93BA"/>
</g>
<path id="small cloud" d="M55 110C55 95.6406 66.6406 84 81 84C83.5258 84 85.9675 84.3602 88.2766 85.032C92.4198 70.0224 106.173 59 122.5 59C142.106 59 158 74.8939 158 94.5C158 114.106 142.106 130 122.5 130H97.6143H64.3857C58.6509 125.231 55 118.042 55 110Z" fill="#C9C9EA"/>
</g>
</g>
</svg>
