<svg width="168" height="168" viewBox="0 0 168 168" fill="none" xmlns="http://www.w3.org/2000/svg">
<g id="cloudy sun icon">
<path id="Ellipse 1" d="M105 82C105 106.301 85.3005 126 61 126C36.6995 126 17 106.301 17 82C17 57.6995 36.6995 38 61 38C85.3005 38 105 57.6995 105 82Z" fill="#FFF737"/>
<path id="Ellipse 4" d="M105 82C105 106.301 85.3006 126 61.0001 126C56.4747 126 52.1088 125.317 48.0001 124.048C37.1767 89.1798 63.5564 78.7133 78.5 80.1033C81.5 72.5 87 65 98.5174 59C102.629 65.6926 105 73.5694 105 82Z" fill="#FFDE31"/>
<path id="small cloud" d="M51 106C51 91.6406 62.6406 80 77 80C79.5258 80 81.9675 80.3602 84.2766 81.032C88.4198 66.0224 102.173 55 118.5 55C138.106 55 154 70.8939 154 90.5C154 110.106 138.106 126 118.5 126H93.6143H60.3857C54.6509 121.231 51 114.042 51 106Z" fill="#E7E7FF"/>
</g>
</svg>
