<svg width="168" height="168" viewBox="0 0 168 168" fill="none" xmlns="http://www.w3.org/2000/svg">
<path d="M34.5 102C20.969 102 10 91.031 10 77.5C10 64.1039 20.7514 53.219 34.0961 53.0033C35.6399 28.9949 55.6017 10 80 10C105.405 10 126 30.5949 126 56C126 81.4051 105.405 102 80 102H34.5Z" fill="#727792"/>
<path d="M34.5 102C20.969 102 10 91.031 10 77.5C10 74.6987 10.4702 72.0071 11.3359 69.5C11.3359 99.5 36 102 70.5 102H34.5Z" fill="#525565"/>
<path d="M125.999 56C125.999 81.4051 105.404 102 79.9993 102H53C39.6665 81.9998 55.8122 53.3825 82 55.8863C82.9762 52.9374 84.9617 48.9487 88.0671 44.9861C93.873 37.5778 103.593 30.2606 117.952 30C123.029 37.3963 125.999 46.3512 125.999 56Z" fill="#525565"/>
<path d="M55 82C55 67.6406 66.6406 56 81 56C83.5258 56 85.9675 56.3602 88.2766 57.032C92.4198 42.0224 106.173 31 122.5 31C142.106 31 158 46.8939 158 66.5C158 86.1061 142.106 102 122.5 102H97.6143H64.3857C58.6509 97.2308 55 90.0418 55 82Z" fill="#ECECFF"/>
<path d="M24 139.5H158" stroke="#9EACBC" stroke-width="6" stroke-linecap="round"/>
<path d="M56 158.5H158" stroke="#9EACBC" stroke-width="6" stroke-linecap="round"/>
<path d="M24 120.5H126" stroke="#9EACBC" stroke-width="6" stroke-linecap="round"/>
</svg>
