<svg width="160" height="160" viewBox="0 0 160 160" fill="none" xmlns="http://www.w3.org/2000/svg">
<g id="moon">
<path id="Ellipse 1" d="M147.136 80.5868C147.136 117.328 117.352 147.112 80.611 147.112C43.8701 147.112 14.0857 117.328 14.0857 80.5868C14.0857 43.8459 43.8701 14.0615 80.611 14.0615C117.352 14.0615 147.136 43.8459 147.136 80.5868Z" fill="#EEEBA4"/>
<path id="Ellipse 20" d="M80.6112 14.0616C43.8703 14.0616 14.0859 43.8459 14.0859 80.5869C14.0859 98.8559 21.4501 115.405 33.3718 127.428C-3.86984 67.2471 49.9136 4.64122 107.008 19.5044C98.9158 16.0024 89.9902 14.0616 80.6112 14.0616Z" fill="#C9C78A"/>
<ellipse id="Ellipse 17" cx="44.7529" cy="59.9205" rx="7.55969" ry="12.8515" transform="rotate(26.194 44.7529 59.9205)" fill="#B8B57B"/>
<ellipse id="Ellipse 19" cx="109.378" cy="122.733" rx="6.33387" ry="17.5788" transform="rotate(48.0307 109.378 122.733)" fill="#B8B57B"/>
<ellipse id="Ellipse 18" cx="43.3486" cy="79.081" rx="3.078" ry="5.23259" transform="rotate(13.0779 43.3486 79.081)" fill="#B8B57B"/>
</g>
</svg>
