<svg width="168" height="168" viewBox="0 0 168 168" fill="none" xmlns="http://www.w3.org/2000/svg">
<g id="moon icon">
<g id="Ellipse 1">
<path fill-rule="evenodd" clip-rule="evenodd" d="M84 144C99.6096 144 113.827 138.039 124.5 128.27C72 127 42.5 70.5 64 27.4141C40.6962 35.6508 24 57.8756 24 84C24 117.137 50.8629 144 84 144Z" fill="#EEEBA4"/>
<path fill-rule="evenodd" clip-rule="evenodd" d="M84 144C99.6096 144 113.827 138.039 124.5 128.27C72 127 42.5 70.5 64 27.4141C40.6962 35.6508 24 57.8756 24 84C24 117.137 50.8629 144 84 144Z" fill="#EEEBA4"/>
</g>
<g id="Ellipse 2">
<path fill-rule="evenodd" clip-rule="evenodd" d="M124.5 128.27C113.827 138.039 99.6096 144 84 144C50.8629 144 24 117.137 24 84C24 76.4233 25.4044 69.1746 27.967 62.5C15 122.5 80.5 153.5 124.5 128.27Z" fill="#EEEBA4"/>
<path fill-rule="evenodd" clip-rule="evenodd" d="M124.5 128.27C113.827 138.039 99.6096 144 84 144C50.8629 144 24 117.137 24 84C24 76.4233 25.4044 69.1746 27.967 62.5C15 122.5 80.5 153.5 124.5 128.27Z" fill="#B8B57B"/>
</g>
</g>
</svg>
