<svg width="168" height="168" viewBox="0 0 168 168" fill="none" xmlns="http://www.w3.org/2000/svg">
<path d="M34.5 130C20.969 130 10 119.031 10 105.5C10 92.1039 20.7514 81.219 34.0961 81.0033C35.6399 56.9949 55.6017 38 80 38C105.405 38 126 58.5949 126 84C126 109.405 105.405 130 80 130H34.5Z" fill="#C9C9EA"/>
<path d="M34.5 130C20.969 130 10 119.031 10 105.5C10 102.699 10.4702 100.007 11.3359 97.5C11.3359 127.5 36 130 70.5 130H34.5Z" fill="#C9C9EA"/>
<path d="M126 84C126 109.405 105.405 130 80 130H53.0001C39.6665 110 55.8122 81.3825 82 83.8863C82.9762 80.9374 84.9617 76.9487 88.0671 72.9861C93.873 65.5778 103.593 58.2606 117.952 58C123.029 65.3963 126 74.3512 126 84Z" fill="#C9C9EA"/>
<path d="M55 110C55 95.6406 66.6406 84 81 84C83.5258 84 85.9675 84.3602 88.2766 85.032C92.4199 70.0224 106.173 59 122.5 59C142.106 59 158 74.8939 158 94.5C158 114.106 142.106 130 122.5 130H64.3857C58.6509 125.231 55 118.042 55 110Z" fill="#C9C9EA"/>
<path d="M115.867 97.6378C117.527 97.7895 118.438 99.504 117.579 100.932C116.28 103.09 114.391 104.86 112.107 106.014C108.915 107.628 105.212 107.907 101.814 106.79C98.4153 105.674 95.5996 103.253 93.9861 100.061C92.9563 98.0234 92.4699 95.778 92.5431 93.5365C92.6068 91.5865 94.798 90.7912 96.4022 91.9018C98.7007 93.4931 100.763 94.9577 102.277 95.4757C108.463 97.5927 112.541 97.334 115.867 97.6378Z" fill="#525565"/>
<path fill-rule="evenodd" clip-rule="evenodd" d="M110.749 97.2972C111.55 98.4898 112.017 99.9253 112.017 101.47C112.017 103.65 111.087 105.612 109.601 106.981C107.062 107.68 104.353 107.625 101.814 106.791C100.317 106.299 98.9332 105.554 97.7155 104.602C97.2764 103.649 97.0315 102.588 97.0315 101.47C97.0315 98.6222 98.6202 96.1455 100.96 94.8778C101.433 95.1336 101.874 95.3381 102.276 95.4757C105.656 96.6321 108.406 97.0797 110.749 97.2972Z" fill="black"/>
<circle cx="99" cy="103" r="1" fill="#D9D9D9"/>
<path d="M50.6343 97.6378C48.9741 97.7895 48.0631 99.504 48.9229 100.932C50.2218 103.09 52.1107 104.86 54.3945 106.014C57.5869 107.628 61.2895 107.907 64.6879 106.79C68.0862 105.674 70.9018 103.253 72.5154 100.061C73.5452 98.0234 74.0315 95.778 73.9583 93.5365C73.8946 91.5865 71.7034 90.7912 70.0993 91.9018C67.8007 93.4931 65.7389 94.9577 64.225 95.4757C58.038 97.5927 53.9602 97.334 50.6343 97.6378Z" fill="#525565"/>
<path fill-rule="evenodd" clip-rule="evenodd" d="M55.7528 97.2972C54.9517 98.4898 54.4843 99.9253 54.4843 101.47C54.4843 103.65 55.415 105.612 56.9006 106.981C59.4398 107.68 62.1488 107.625 64.6879 106.791C66.1846 106.299 67.5683 105.554 68.786 104.602C69.2251 103.649 69.47 102.588 69.47 101.47C69.47 98.6222 67.8813 96.1455 65.5418 94.8778C65.0681 95.1336 64.6272 95.3381 64.225 95.4757C60.8453 96.6321 58.095 97.0797 55.7528 97.2972Z" fill="black"/>
<circle cx="1" cy="1" r="1" transform="matrix(-1 0 0 1 68 101)" fill="#D9D9D9"/>
<path fill-rule="evenodd" clip-rule="evenodd" d="M109 104C100.969 104 94.1665 99.0328 91.8488 92.1739C98.2636 84.0435 117.829 89.2174 119.147 101.043C116.258 102.909 112.764 104 109 104Z" fill="#A2A2C6"/>
<path fill-rule="evenodd" clip-rule="evenodd" d="M57.5 103C65.3079 103 71.9214 98.0328 74.1748 91.1739C67.9382 83.0435 48.9164 88.2174 47.635 100.043C50.4438 101.909 53.8407 103 57.5 103Z" fill="#A2A2C6"/>
<path fill-rule="evenodd" clip-rule="evenodd" d="M38 98.4686C44.8219 85.1273 58.7019 75.9943 74.715 75.9943C74.9733 75.9943 75.231 75.9967 75.4882 76.0014C71.9094 74.0843 67.8195 72.9971 63.4757 72.9971C49.4073 72.9971 38.0023 84.4007 38 98.4686Z" fill="#727C9F"/>
<path fill-rule="evenodd" clip-rule="evenodd" d="M129.485 98.4684C122.663 85.1273 108.783 75.9943 92.7702 75.9943C92.5119 75.9943 92.2541 75.9967 91.9969 76.0014C95.5757 74.0843 99.6656 72.9971 104.009 72.9971C118.078 72.9971 129.483 84.4006 129.485 98.4684Z" fill="#727C9F"/>
<path d="M68 134.5C68 137.814 65.3137 140.5 62 140.5C58.6863 140.5 56 137.814 56 134.5C56 131.186 62 122 62 122C62 122 68 131.186 68 134.5Z" fill="#5268A0"/>
<path d="M74 120.432C74 122.403 72.433 124 70.5 124C68.567 124 67 122.403 67 120.432C67 118.462 70.5 113 70.5 113C70.5 113 74 118.462 74 120.432Z" fill="#5268A0"/>
<path d="M96 106.054C96 107.129 95.1046 108 94 108C92.8954 108 92 107.129 92 106.054C92 104.979 94 102 94 102C94 102 96 104.979 96 106.054Z" fill="#5268A0"/>
</svg>
