<svg width="168" height="168" viewBox="0 0 168 168" fill="none" xmlns="http://www.w3.org/2000/svg">
<g id="snowy icon">
<g id="clouds">
<g id="big cloud">
<path id="Vector" d="M34.5 107C20.969 107 10 96.031 10 82.5C10 69.1039 20.7514 58.219 34.0961 58.0033C35.6399 33.9949 55.6017 15 80 15C105.405 15 126 35.5949 126 61C126 86.4051 105.405 107 80 107H34.5Z" fill="#99B5DF"/>
<path id="Vector_2" d="M34.5 107C20.969 107 10 96.031 10 82.5C10 79.6987 10.4702 77.0071 11.3359 74.5C11.3359 104.5 36 107 70.5 107H34.5Z" fill="#8CA1BA"/>
<path id="Vector_3" d="M125.999 61C125.999 86.4051 105.404 107 79.9993 107H53C39.6665 86.9998 55.8122 58.3825 82 60.8863C82.9762 57.9374 84.9617 53.9487 88.0671 49.9861C93.873 42.5778 103.593 35.2606 117.952 35C123.029 42.3963 125.999 51.3512 125.999 61Z" fill="#8CA1BA"/>
</g>
<path id="small cloud" d="M55 87C55 72.6406 66.6406 61 81 61C83.5258 61 85.9675 61.3602 88.2766 62.032C92.4198 47.0224 106.173 36 122.5 36C142.106 36 158 51.8939 158 71.5C158 91.1061 142.106 107 122.5 107H97.6143H64.3857C58.6509 102.231 55 95.0418 55 87Z" fill="#BADEFF"/>
</g>
<g id="snow">
<path id="Polygon 1" d="M79.9999 143.675L84.1523 141.338M79.9999 143.675L75.8475 141.338V136.663M79.9999 143.675V148.35M84.1523 141.338V136.663M84.1523 141.338L88.3047 143.675M84.1523 136.663L79.9999 134.325M84.1523 136.663L88.3047 134.325M79.9999 134.325L75.8475 136.663M79.9999 134.325V129.65M75.8475 136.663L71.695 134.325V131.19M79.9999 148.35L77.1799 150M79.9999 148.35L82.8199 150M79.9999 129.65L77.1799 128M79.9999 129.65L82.8199 128M88.3047 134.325V131.19M88.3047 134.325L91 135.92M71.6952 143.675L75.8477 141.338M71.6952 143.675V146.81M71.6952 143.675L69 142.08M88.3047 143.675V146.81M88.3047 143.675L91 142.08M69 135.92L71.6953 134.325" stroke="white" stroke-width="2" stroke-linecap="round"/>
<path id="Polygon 2" d="M113.5 131.687L116.331 130.094M113.5 131.687L110.669 130.094V126.906M113.5 131.687V134.875M116.331 130.094V126.906M116.331 130.094L119.162 131.687M116.331 126.906L113.5 125.312M116.331 126.906L119.162 125.312M113.5 125.312L110.669 126.906M113.5 125.312V122.125M110.669 126.906L107.838 125.312V123.175M113.5 134.875L111.577 136M113.5 134.875L115.423 136M113.5 122.125L111.577 121M113.5 122.125L115.423 121M119.162 125.312V123.175M119.162 125.312L121 126.4M107.838 131.687L110.669 130.094M107.838 131.687V133.825M107.838 131.687L106 130.6M119.162 131.687V133.825M119.162 131.687L121 130.6M106 126.4L107.838 125.312" stroke="white" stroke-width="2" stroke-linecap="round"/>
<circle id="Ellipse 5" cx="49" cy="123" r="6" fill="#CFEEFF"/>
<circle id="Ellipse 6" cx="95" cy="118" r="5" fill="#CFEEFF"/>
<circle id="Ellipse 7" cx="116" cy="149" r="3" fill="#CFEEFF"/>
<circle id="Ellipse 8" cx="137" cy="135" r="4" fill="#CFEEFF"/>
<circle id="Ellipse 9" cx="30.5" cy="120.5" r="3.5" fill="#CFEEFF"/>
<circle id="Ellipse 10" cx="33" cy="148" r="2" fill="#CFEEFF"/>
</g>
</g>
</svg>
