<svg width="168" height="168" viewBox="0 0 168 168" fill="none" xmlns="http://www.w3.org/2000/svg">
<g id="thunderstorm icon">
<g id="thunderstorm">
<g id="big cloud">
<path id="Vector" d="M34.5 100C20.969 100 10 89.031 10 75.5C10 62.1039 20.7514 51.219 34.0961 51.0033C35.6399 26.9949 55.6017 8 80 8C105.405 8 126 28.5949 126 54C126 79.4051 105.405 100 80 100H34.5Z" fill="#414457"/>
<path id="Vector_2" d="M34.5 100C20.969 100 10 89.031 10 75.5C10 72.6987 10.4702 70.0071 11.3359 67.5C11.3359 97.5 36 100 70.5 100H34.5Z" fill="#2B2E3F"/>
<path id="Vector_3" d="M125.999 54C125.999 79.4051 105.404 100 79.9993 100H53C39.6665 79.9998 55.8122 51.3825 82 53.8863C82.9762 50.9374 84.9617 46.9487 88.0671 42.9861C93.873 35.5778 103.593 28.2606 117.952 28C123.029 35.3963 125.999 44.3512 125.999 54Z" fill="#2B2E3F"/>
</g>
<path id="small cloud" d="M55 80C55 65.6406 66.6406 54 81 54C83.5258 54 85.9675 54.3602 88.2766 55.032C92.4198 40.0224 106.173 29 122.5 29C142.106 29 158 44.8939 158 64.5C158 84.1061 142.106 100 122.5 100H97.6143H64.3857C58.6509 95.2308 55 88.0418 55 80Z" fill="#8C8BA8"/>
<g id="lightning">
<path id="Vector 1" d="M64 119.727L91 69L82 110.727H107L77.5 159L89 119.727H64Z" fill="#FFEC86"/>
<path id="Vector 2" d="M64 119.727L91 69L68 119.727H89H92.5L77.5 159L89 119.727H68H64Z" fill="#C0AA37"/>
</g>
</g>
</g>
</svg>
