<svg width="168" height="168" viewBox="0 0 168 168" fill="none" xmlns="http://www.w3.org/2000/svg">
<g id="cloudy icon">
<g id="Group 2">
<g id="wind">
<path d="M104.744 21.7154C104.744 12.4837 112.306 5 121.635 5C130.964 5 138.526 12.4837 138.526 21.7154C138.526 30.9471 130.964 38.4308 121.635 38.4308H56.9822" stroke="#B0DEFF" stroke-width="3" stroke-linecap="round"/>
<path d="M104.744 21.7154C104.744 12.4837 112.306 5 121.635 5C130.964 5 138.526 12.4837 138.526 21.7154C138.526 30.9471 130.964 38.4308 121.635 38.4308H56.9822" stroke="#B0DEFF" stroke-width="3" stroke-linecap="round"/>
</g>
<g id="clouds">
<g id="big cloud">
<path id="Vector" d="M24.0702 120.041C10.7766 120.041 0 109.256 0 95.9516C0 82.7797 10.5628 72.077 23.6733 71.8649C25.1901 48.2584 44.8017 29.5815 68.772 29.5815C93.7314 29.5815 113.965 49.8316 113.965 74.8115C113.965 99.7913 93.7314 120.041 68.772 120.041H24.0702Z" fill="#9DA5CC"/>
<path id="Vector_2" d="M24.0702 120.041C10.7766 120.041 0 109.256 0 95.9516C0 93.1971 0.461909 90.5506 1.31243 88.0855C1.31243 117.583 25.5439 120.041 59.4386 120.041H24.0702Z" fill="#8C93BA"/>
<path id="Vector_3" d="M113.964 74.8115C113.964 99.7913 93.7306 120.041 68.7712 120.041H42.2456C29.1459 100.376 45.0084 72.2378 70.7368 74.6997C71.6958 71.8001 73.6465 67.8782 76.6974 63.982C82.4014 56.6976 91.9514 49.503 106.058 49.2467C111.046 56.5192 113.964 65.3242 113.964 74.8115Z" fill="#8C93BA"/>
</g>
<path id="small cloud" d="M44.2107 100.376C44.2107 86.2572 55.6471 74.8115 69.7546 74.8115C72.2361 74.8115 74.635 75.1656 76.9035 75.8262C80.9741 61.0678 94.4857 50.23 110.527 50.23C129.789 50.23 145.404 65.8578 145.404 85.1357C145.404 104.414 129.789 120.041 110.527 120.041H86.0774H53.4317C47.7976 115.352 44.2107 108.283 44.2107 100.376Z" fill="#C9C9EA"/>
</g>
<g id="wind_2">
<path id="Ellipse 11" d="M104.253 138.232C104.253 151.536 115.004 162.322 128.267 162.322C141.529 162.322 152.281 151.536 152.281 138.232C152.281 124.927 141.529 114.142 128.267 114.142H36.3508" stroke="#F1F9FF" stroke-width="3" stroke-linecap="round"/>
<path id="Ellipse 14" d="M149.011 39.9057C149.011 35.8329 152.382 32.5313 156.541 32.5313C160.699 32.5313 164.07 35.8329 164.07 39.9057C164.07 43.9785 160.699 47.2802 156.541 47.2802H127.719" stroke="#F1F9FF" stroke-width="3" stroke-linecap="round"/>
<g id="Ellipse 12">
<path d="M47.8737 138.232C47.8737 145.02 53.4317 150.523 60.2878 150.523C67.1439 150.523 72.7018 145.02 72.7018 138.232C72.7018 131.444 67.1439 125.941 60.2878 125.941H12.772" stroke="#B0DEFF" stroke-width="3" stroke-linecap="round"/>
<path d="M47.8737 138.232C47.8737 145.02 53.4317 150.523 60.2878 150.523C67.1439 150.523 72.7018 145.02 72.7018 138.232C72.7018 131.444 67.1439 125.941 60.2878 125.941H12.772" stroke="#B0DEFF" stroke-width="3" stroke-linecap="round"/>
</g>
<line id="Line 14" x1="32.4387" y1="13.8326" x2="49.1054" y2="13.8326" stroke="#B0DEFF" stroke-width="2" stroke-linecap="round"/>
<line id="Line 20" x1="150.833" y1="75.278" x2="166.5" y2="75.278" stroke="#B0DEFF" stroke-width="3" stroke-linecap="round"/>
<line id="Line 17" x1="17.7019" y1="13.8326" x2="25.5265" y2="13.8326" stroke="#B0DEFF" stroke-width="2" stroke-linecap="round"/>
<line id="Line 21" x1="148.368" y1="80.6943" x2="156.193" y2="80.6943" stroke="#B0DEFF" stroke-width="2" stroke-linecap="round"/>
<line id="Line 18" x1="7.8772" y1="132.807" x2="20.614" y2="132.807" stroke="#B0DEFF" stroke-width="2" stroke-linecap="round"/>
<line id="Line 15" x1="64.377" y1="3.5" x2="92.8156" y2="3.5" stroke="#F1F9FF" stroke-width="3" stroke-linecap="round"/>
<line id="Line 16" x1="41.7805" y1="20.2154" x2="67.2718" y2="20.2154" stroke="#F1F9FF" stroke-width="3" stroke-linecap="round"/>
<line id="Line 19" x1="122.342" y1="105.759" x2="147.834" y2="105.759" stroke="#F1F9FF" stroke-width="3" stroke-linecap="round"/>
</g>
</g>
</g>
</svg>
