<svg width="107" height="107" viewBox="0 0 107 107" fill="none" xmlns="http://www.w3.org/2000/svg">
<path d="M97.9043 53.8881C97.9043 78.1886 78.2048 97.8881 53.9043 97.8881C29.6038 97.8881 9.9043 78.1886 9.9043 53.8881C9.9043 29.5876 29.6038 9.88811 53.9043 9.88811C78.2048 9.88811 97.9043 29.5876 97.9043 53.8881Z" fill="#EEEBA4"/>
<path d="M53.9043 9.88815C29.6038 9.88815 9.9043 29.5876 9.9043 53.8882C9.9043 65.9714 14.7749 76.917 22.66 84.8687C-1.9717 45.0652 33.6008 3.65752 71.3634 13.4881C66.011 11.1718 60.1075 9.88815 53.9043 9.88815Z" fill="#C9C78A"/>
<ellipse cx="30.1877" cy="40.2194" rx="5" ry="8.5" transform="rotate(26.194 30.1877 40.2194)" fill="#B8B57B"/>
<ellipse cx="72.9309" cy="81.7635" rx="4.18924" ry="11.6267" transform="rotate(48.0307 72.9309 81.7635)" fill="#B8B57B"/>
<ellipse cx="29.2585" cy="52.8922" rx="2.03579" ry="3.46085" transform="rotate(13.0779 29.2585 52.8922)" fill="#B8B57B"/>
</svg>
